<svg width="500" height="500" viewBox="0 0 500 500" fill="none" xmlns="http://www.w3.org/2000/svg">
<g clip-path="url(#clip0_284_501)">
<path fill-rule="evenodd" clip-rule="evenodd" d="M276.871 479.231C276.87 479.234 276.867 479.232 276.868 479.23C278.068 474.649 278.013 470.247 277.096 466.168C276.665 464.243 277.654 462.3 279.418 461.418L334.802 433.726C336.547 432.844 338.706 433.222 339.984 434.697C345.85 441.589 355.027 445.566 365.049 444.18C377.375 442.489 387.199 432.448 388.675 420.087C389.448 413.627 387.991 407.563 384.986 402.507C383.942 400.761 384.14 398.548 385.58 397.109L452.66 330.029C454.099 328.589 456.312 328.391 458.058 329.435C462.61 332.152 468.008 333.61 473.766 333.286C487.369 332.548 498.651 321.68 499.875 308.131C501.134 294.168 492.03 282.022 479.488 280.259C477.365 279.953 475.817 278.117 475.817 275.976V227.178C475.817 225.342 476.969 223.741 478.696 223.093C491.49 218.379 500.918 206.485 499.929 192.45C499.011 179.405 488.773 168.555 475.799 166.917C469.286 166.089 463.15 167.565 458.076 170.588C456.33 171.631 454.117 171.434 452.678 169.994L385.598 102.914C384.158 101.474 383.96 99.2613 385.004 97.5159C388.009 92.4777 389.466 86.4139 388.692 79.9722C387.145 67.0168 376.421 56.7245 363.412 55.6809C354.073 54.9251 345.598 58.8117 340.038 65.2534C338.76 66.7289 336.601 67.0888 334.856 66.2072L279.472 38.2451C277.744 37.3634 276.755 35.4561 277.168 33.5488C278.032 29.5362 278.032 25.1997 276.863 20.7014C274.074 10.0312 265.005 1.86217 254.083 0.314722C236.935 -2.11441 222.234 11.1288 222.234 27.8088C222.234 29.8961 222.468 31.9113 222.918 33.8546C223.35 35.78 222.378 37.7413 220.615 38.623L165.212 66.3151C163.467 67.1968 161.308 66.8189 160.03 65.3434C154.164 58.4518 144.988 54.4753 134.965 55.8608C122.64 57.5522 112.815 67.5927 111.322 79.9543C110.548 86.4139 112.006 92.4777 115.01 97.5339C116.054 99.2793 115.856 101.492 114.417 102.932L47.3366 170.012C45.8971 171.452 43.6839 171.649 41.9385 170.606C37.3322 167.853 31.8622 166.395 26.0143 166.755C12.3752 167.601 1.14711 178.631 0.0854884 192.252C-0.994126 206.233 8.2726 218.217 21.048 221.402C22.8474 221.851 24.3049 223.831 24.3049 225.702L24.3049 274.339C24.3049 276.192 22.8474 278.189 21.048 278.639C8.29059 281.806 -0.99413 293.808 0.0854833 307.789C1.1471 321.428 12.3751 332.44 26.0143 333.286C31.8442 333.645 37.3142 332.188 41.9385 329.435C43.6839 328.391 45.8971 328.589 47.3366 330.029L114.417 397.109C115.856 398.548 116.054 400.761 115.01 402.507C112.005 407.545 110.53 413.627 111.322 420.087C112.815 432.448 122.658 442.489 134.983 444.162C145.042 445.529 154.218 441.517 160.084 434.589C161.344 433.096 163.503 432.718 165.266 433.582L220.669 461.004C222.45 461.886 223.458 463.883 222.99 465.808C222.504 467.86 222.234 470.001 222.234 472.196C222.234 488.822 236.827 502.029 253.903 499.708C264.926 498.216 274.044 489.984 276.875 479.233C276.876 479.231 276.873 479.229 276.871 479.231ZM168.316 427.356C168.31 427.356 168.305 427.355 168.299 427.352C166.541 426.468 165.555 424.51 165.986 422.588C166.418 420.68 166.652 418.683 166.652 416.65C166.652 414.617 166.418 412.547 165.968 410.604C165.536 408.679 166.508 406.717 168.271 405.836L223.674 378.144C225.419 377.262 227.578 377.64 228.838 379.115C232.31 383.182 236.917 386.205 242.189 387.734C244.078 388.292 245.428 389.947 245.428 391.909V441.445C245.428 443.37 244.096 445.008 242.243 445.548C237.061 447.041 232.526 449.992 229.072 453.932C227.794 455.39 225.671 455.732 223.943 454.886L168.333 427.36C168.328 427.357 168.322 427.356 168.316 427.356ZM228.838 45.7934C228.838 45.7992 228.84 45.8048 228.844 45.8092C232.316 49.8723 236.92 52.8928 242.189 54.4214C244.078 54.9792 245.428 56.6345 245.428 58.5958V108.06C245.428 110.022 244.078 111.695 242.189 112.235C236.935 113.764 232.31 116.805 228.838 120.854C227.578 122.347 225.419 122.707 223.674 121.825L168.271 94.1331C166.508 93.2514 165.518 91.2902 165.968 89.3649C166.418 87.4216 166.652 85.3883 166.652 83.319C166.652 81.2498 166.418 79.2164 165.968 77.2731C165.536 75.3478 166.508 73.3866 168.271 72.5049L223.674 44.8128C225.416 43.9504 227.571 44.3078 228.832 45.7775C228.836 45.7819 228.838 45.7876 228.838 45.7934ZM331.716 72.3969C331.722 72.3969 331.728 72.3983 331.733 72.401C333.491 73.2847 334.459 75.2608 334.01 77.1652C333.542 79.1445 333.308 81.2137 333.308 83.337C333.308 85.4602 333.542 87.4396 333.992 89.3829C334.424 91.3082 333.452 93.2694 331.689 94.1511L276.287 121.843C274.469 122.761 272.31 122.239 270.979 120.71C267.128 116.265 261.892 113.062 255.936 111.767C253.885 111.317 252.373 109.59 252.373 107.484V59.1716C252.373 57.2823 253.867 55.339 255.72 54.9432C261.856 53.6476 267.254 50.3368 271.159 45.7125C272.49 44.129 274.685 43.6072 276.521 44.5428L331.699 72.3929C331.704 72.3956 331.71 72.3969 331.716 72.3969ZM159.014 392.655C159.02 392.649 159.025 392.643 159.03 392.636L193.426 340.951C194.65 339.116 197.025 338.486 198.986 339.475L220.561 350.272C222.324 351.153 223.314 353.114 222.864 355.04C222.414 356.983 222.18 359.016 222.18 361.086C222.18 363.155 222.414 365.188 222.864 367.15C223.296 369.075 222.324 371.036 220.561 371.918L165.158 399.628C163.359 400.528 161.2 400.042 159.868 398.512C159.829 398.467 159.789 398.42 159.749 398.373C159.662 398.269 159.571 398.161 159.472 398.062C158.108 396.554 157.872 394.365 158.998 392.675C159.002 392.668 159.008 392.661 159.014 392.655ZM58.7985 309.03H107.723C109.684 309.03 111.448 310.344 111.916 312.233C114.381 322.202 122.208 330.029 132.176 332.494C134.084 332.962 135.379 334.725 135.379 336.686V385.629C135.379 387.608 133.994 389.264 132.068 389.749C129.369 390.433 126.832 391.495 124.511 392.898C122.838 393.906 120.678 393.564 119.293 392.179L52.2308 325.117C50.8453 323.731 50.5035 321.572 51.5291 319.898C52.9326 317.577 54.0122 315.04 54.678 312.341C55.1638 310.416 56.8192 309.03 58.7985 309.03ZM135.397 163.318C135.397 165.136 133.976 167.079 132.194 167.511C121.992 170.03 114.003 178.181 111.736 188.491C111.34 190.327 109.396 191.802 107.507 191.802H59.1044C57.0172 191.802 55.2898 190.309 54.8399 188.275C54.1922 185.396 53.0766 182.715 51.6191 180.25C50.5934 178.523 50.7734 176.346 52.1949 174.906L119.311 107.79C120.696 106.405 122.856 106.063 124.529 107.07C126.85 108.474 129.387 109.554 132.086 110.219C134.012 110.705 135.397 112.361 135.397 114.34V163.318ZM222.207 138.865C222.202 138.865 222.198 138.869 222.198 138.874C222.199 141.03 222.451 143.132 222.936 145.145C223.386 147.052 222.414 149.031 220.669 149.913L199.076 160.925C197.097 161.933 194.686 161.303 193.48 159.45L158.987 107.34C157.889 105.685 158.033 103.508 159.365 102.05C159.473 101.933 159.58 101.812 159.688 101.69L159.69 101.689C159.797 101.568 159.905 101.447 160.012 101.331C161.29 99.837 163.449 99.4592 165.194 100.341L220.597 128.051C222.36 128.933 223.35 130.894 222.9 132.819C222.451 134.76 222.217 136.79 222.216 138.856C222.216 138.861 222.212 138.865 222.207 138.865ZM340.92 107.295C340.92 107.293 340.916 107.292 340.915 107.294L306.696 158.55C305.49 160.367 303.133 160.997 301.172 160.044L279.49 149.445C277.708 148.582 276.719 146.62 277.132 144.695C277.546 142.824 277.762 140.88 277.762 138.883C277.762 136.886 277.528 134.781 277.078 132.837C276.647 130.912 277.618 128.951 279.382 128.069L334.784 100.359C336.583 99.4592 338.742 99.945 340.074 101.474C340.137 101.546 340.2 101.614 340.263 101.681C340.326 101.749 340.389 101.816 340.452 101.888C341.817 103.398 342.052 105.606 340.925 107.297C340.923 107.299 340.92 107.298 340.92 107.295ZM441.18 190.974H392.219C390.258 190.974 388.513 189.679 388.027 187.772C385.562 177.803 377.734 169.976 367.766 167.511C365.859 167.043 364.563 165.28 364.563 163.318V114.376C364.563 112.397 365.949 110.741 367.874 110.255C370.573 109.572 373.11 108.51 375.431 107.106C377.105 106.099 379.264 106.441 380.649 107.826L447.711 174.888C449.097 176.274 449.439 178.433 448.431 180.106C447.028 182.428 445.948 184.965 445.282 187.664C444.796 189.589 443.159 190.974 441.18 190.974ZM392.219 302.085C390.258 302.085 388.513 300.771 388.045 298.882C385.58 288.914 377.752 281.086 367.784 278.621C365.877 278.153 364.581 276.39 364.581 274.429V225.594C364.581 223.633 365.895 221.869 367.784 221.402C377.752 218.937 385.58 211.109 388.045 201.141C388.513 199.234 390.276 197.938 392.237 197.938H441.072C443.033 197.938 444.796 199.234 445.264 201.141C447.729 211.109 455.557 218.937 465.525 221.402C467.432 221.869 468.728 223.633 468.728 225.594L468.728 274.465C468.728 276.48 467.306 278.171 465.363 278.657C455.467 281.158 447.711 288.967 445.264 298.882C444.796 300.789 443.051 302.085 441.09 302.085H392.219ZM364.581 385.629V336.686C364.581 334.725 365.895 332.962 367.784 332.494C377.752 330.029 385.58 322.202 388.045 312.233C388.513 310.326 390.276 309.03 392.237 309.03H441.18C443.159 309.03 444.814 310.416 445.3 312.341C445.984 315.04 447.046 317.577 448.449 319.898C449.457 321.572 449.115 323.731 447.729 325.117L380.667 392.179C379.282 393.564 377.123 393.906 375.449 392.898C373.128 391.495 370.591 390.415 367.892 389.749C365.967 389.264 364.581 387.608 364.581 385.629ZM342.62 390.532C342.625 390.527 342.626 390.519 342.622 390.512L310.582 340.069C309.197 337.892 310.007 334.995 312.31 333.843L334.892 322.543C336.655 321.662 338.76 322.166 340.038 323.659C343.691 327.906 348.621 331.018 354.217 332.458C356.196 332.962 357.618 334.671 357.618 336.704V385.539C357.618 387.572 356.196 389.282 354.217 389.785C352.112 390.325 350.114 391.099 348.243 392.071C346.267 393.112 343.826 392.433 342.618 390.552C342.614 390.546 342.615 390.537 342.62 390.532ZM277.753 361.131C277.759 361.125 277.762 361.117 277.762 361.109C277.761 359.026 277.527 357.015 277.078 355.076C276.647 353.151 277.618 351.189 279.382 350.308L298.221 340.897C300.218 339.907 302.647 340.573 303.835 342.462L339.012 397.865C339.414 398.494 339.375 399.31 338.943 399.917C338.918 399.953 338.899 399.987 338.871 400.02C338.848 400.045 338.822 400.073 338.802 400.1C338.274 400.768 337.342 400.934 336.583 400.564L279.364 371.954C277.6 371.072 276.611 369.111 277.06 367.185C277.509 365.246 277.743 363.217 277.744 361.152C277.744 361.144 277.747 361.136 277.753 361.131ZM245.428 301.856C245.428 297.757 245.428 295.708 244.589 294.233C244.117 293.403 243.577 292.797 242.808 292.232C241.44 291.228 239.194 290.967 234.701 290.444C231.757 290.101 230.284 289.93 229.062 290.274C228.373 290.469 227.814 290.727 227.221 291.127C226.167 291.836 225.377 293.023 223.797 295.396L202.171 327.87C200.714 330.047 201.505 332.998 203.845 334.167L223.674 344.082C225.419 344.963 227.56 344.604 228.838 343.11C232.31 339.062 236.935 336.021 242.189 334.491C244.078 333.951 245.428 332.278 245.428 330.317V301.856ZM192.908 282.554C195.41 281.308 196.661 280.685 197.914 280.59C198.157 280.572 198.345 280.568 198.589 280.575C199.845 280.613 201.148 281.19 203.755 282.344C211.194 285.638 214.914 287.285 215.891 289.679C216.078 290.135 216.177 290.477 216.265 290.961C216.725 293.506 214.777 296.432 210.882 302.284L195.334 325.638C194.11 327.474 191.735 328.103 189.774 327.114L168.319 316.377C168.312 316.374 168.304 316.375 168.298 316.381C168.293 316.386 168.285 316.387 168.278 316.384C166.522 315.499 165.537 313.543 165.986 311.621C166.436 309.678 166.67 307.645 166.67 305.575C166.67 303.506 166.436 301.509 166.004 299.566C165.572 297.64 166.562 295.679 168.325 294.797L192.908 282.554ZM187.791 273.083C188.2 273.12 188.584 273.266 188.905 273.523C190.061 274.45 189.924 276.3 188.598 276.961L165.14 288.644C163.377 289.525 161.272 289.021 159.976 287.528C156.324 283.264 151.393 280.133 145.779 278.711C143.8 278.207 142.379 276.498 142.379 274.465V225.576C142.379 223.582 143.778 221.893 145.735 221.404C145.74 221.403 145.743 221.398 145.743 221.393C145.743 221.387 145.747 221.383 145.752 221.381C151.219 219.995 156.038 216.991 159.67 212.909C161.002 211.415 163.197 211.073 164.979 211.973L188.559 223.79C189.623 224.323 189.742 225.802 188.815 226.549C188.556 226.758 188.242 226.878 187.91 226.906C176.049 227.925 166.74 237.875 166.74 250C166.74 262.084 175.987 272.008 187.791 273.083ZM210.391 197.648C214.38 203.67 216.375 206.681 215.83 209.3C215.757 209.651 215.687 209.897 215.561 210.233C214.628 212.739 210.81 214.465 203.172 217.917C200.436 219.153 199.068 219.772 197.749 219.796C197.568 219.8 197.431 219.797 197.25 219.786C195.933 219.709 194.619 219.05 191.99 217.733L168.181 205.801C166.4 204.92 165.41 202.922 165.878 200.997C166.4 198.91 166.67 196.714 166.67 194.465C166.67 192.666 166.49 190.921 166.166 189.229C165.788 187.286 166.67 185.307 168.433 184.407L189.792 173.521C191.771 172.513 194.164 173.143 195.388 174.996L210.391 197.648ZM245.446 197.903C245.446 202.218 245.446 204.375 244.518 205.907C244.09 206.614 243.627 207.135 242.975 207.643C241.563 208.744 239.199 209.024 234.472 209.583C231.353 209.952 229.794 210.136 228.507 209.744C227.91 209.562 227.427 209.338 226.903 209C225.772 208.272 224.937 207.012 223.269 204.493L202.171 172.639C200.732 170.48 201.505 167.547 203.827 166.359L223.835 156.157C225.581 155.275 227.74 155.617 229.018 157.093C232.472 161.069 237.043 164.038 242.243 165.55C244.114 166.089 245.446 167.745 245.446 169.688V197.903ZM276.403 203.986C274.447 206.916 273.468 208.381 272.081 209.138C271.833 209.273 271.618 209.374 271.355 209.477C269.883 210.054 268.064 209.855 264.426 209.457C258.789 208.84 255.97 208.532 254.405 207.056C254.128 206.795 253.918 206.561 253.689 206.257C252.391 204.54 252.391 201.965 252.391 196.815V170.3C252.391 168.213 253.903 166.467 255.936 166.035C261.982 164.722 267.272 161.447 271.141 156.895C272.454 155.347 274.613 154.807 276.449 155.707L296.242 165.388C298.599 166.539 299.408 169.526 297.951 171.703L276.403 203.986ZM308.196 217.772C305.449 219.121 304.075 219.796 302.7 219.843C302.616 219.845 302.553 219.846 302.469 219.846C301.094 219.844 299.671 219.201 296.825 217.915C288.753 214.267 284.717 212.443 283.841 209.748C283.789 209.588 283.756 209.474 283.715 209.311C283.032 206.56 285.152 203.385 289.39 197.036L304.897 173.809C306.102 171.991 308.459 171.361 310.42 172.315L331.851 182.805C333.668 183.687 334.676 185.72 334.19 187.664C333.632 189.841 333.326 192.108 333.326 194.447C333.326 196.786 333.632 199.108 334.19 201.285C334.694 203.228 333.668 205.261 331.869 206.143L308.196 217.772ZM312.066 226.904C311.75 226.878 311.452 226.763 311.206 226.565C310.323 225.853 310.444 224.443 311.462 223.943L335.576 212.099C337.285 211.253 339.318 211.721 340.614 213.143C344.23 217.119 348.981 220.034 354.379 221.384C356.286 221.869 357.672 223.507 357.672 225.486V274.429C357.672 276.458 356.256 278.164 354.283 278.672C354.276 278.674 354.267 278.672 354.262 278.666C354.256 278.661 354.248 278.658 354.24 278.66C348.614 280.101 343.67 283.249 340.002 287.546C338.706 289.057 336.601 289.561 334.82 288.698L311.4 277.128C310.012 276.442 309.868 274.507 311.077 273.539C311.411 273.271 311.81 273.12 312.236 273.08C324.027 271.993 333.26 262.075 333.26 250C333.26 237.867 323.938 227.911 312.066 226.904ZM287.555 303.742C283.302 297.043 281.175 293.694 282.055 290.859C282.936 288.023 287.005 286.29 295.143 282.823C295.223 282.789 295.304 282.755 295.384 282.72C298.594 281.341 300.199 280.652 301.607 280.689C303.015 280.726 304.413 281.416 307.208 282.797L331.653 294.869C333.416 295.751 334.406 297.712 333.992 299.638C333.56 301.545 333.344 303.524 333.344 305.557C333.344 307.591 333.578 309.66 334.028 311.603C334.46 313.529 333.488 315.49 331.725 316.372L307.793 328.337C305.796 329.327 303.367 328.661 302.179 326.772L287.555 303.742ZM252.427 302.136C252.427 297.927 252.427 295.823 253.304 294.323C253.776 293.516 254.309 292.926 255.064 292.375C256.468 291.352 258.775 291.119 263.389 290.652C266.394 290.348 267.896 290.196 269.133 290.574C269.801 290.779 270.342 291.041 270.915 291.44C271.978 292.178 272.756 293.405 274.314 295.858L295.45 329.147C296.835 331.324 296.026 334.221 293.722 335.373L276.341 344.064C274.523 344.981 272.364 344.46 271.033 342.93C267.182 338.486 261.928 335.283 255.972 333.987C253.924 333.538 252.414 331.815 252.409 329.714C252.409 329.709 252.413 329.705 252.418 329.705C252.423 329.705 252.427 329.701 252.427 329.696V302.136ZM357.672 114.502V163.444C357.672 165.424 356.286 167.079 354.361 167.565C348.963 168.914 344.212 171.847 340.578 175.842C339.282 177.263 337.249 177.731 335.54 176.886L315.405 167.025C313.048 165.873 312.238 162.886 313.695 160.709L346.75 111.191C347.847 109.554 349.898 108.816 351.752 109.482C352.633 109.806 353.551 110.075 354.469 110.309C356.376 110.777 357.672 112.541 357.672 114.502ZM145.608 110.309C145.614 110.309 145.62 110.309 145.626 110.307C146.505 110.092 147.384 109.823 148.227 109.518C150.08 108.852 152.149 109.59 153.229 111.245L186.751 161.861C188.19 164.02 187.416 166.953 185.095 168.141L165.626 178.073C163.827 178.991 161.668 178.451 160.39 176.886C156.702 172.387 151.609 169.058 145.797 167.583C143.818 167.079 142.397 165.37 142.397 163.336V114.502C142.397 112.544 143.688 110.783 145.591 110.312C145.597 110.31 145.603 110.309 145.608 110.309ZM142.37 385.575C142.375 385.575 142.379 385.571 142.379 385.566V336.74C142.379 334.707 143.818 332.998 145.779 332.494C151.375 331.072 156.306 327.941 159.958 323.695C161.254 322.202 163.341 321.698 165.104 322.579L184.915 332.494C187.255 333.663 188.046 336.614 186.589 338.792L153.247 388.868C152.167 390.505 150.098 391.243 148.245 390.577C147.363 390.253 146.481 389.983 145.563 389.767C143.659 389.3 142.365 387.542 142.361 385.584C142.361 385.579 142.365 385.575 142.37 385.575ZM31.2684 274.465C31.2584 274.465 31.2503 274.457 31.2503 274.447V225.63C31.2503 223.597 32.6719 221.905 34.6332 221.402C44.2237 218.973 51.799 211.541 54.48 202.059C55.0199 200.151 56.7112 198.802 58.6905 198.802H107.993C109.972 198.802 111.664 200.151 112.203 202.059C114.884 211.541 122.46 218.955 132.05 221.402C134.012 221.905 135.433 223.597 135.433 225.63L135.433 274.465C135.433 276.426 134.12 278.189 132.23 278.657C122.262 281.122 114.435 288.95 111.97 298.918C111.502 300.825 109.738 302.121 107.777 302.121H58.9425C56.9812 302.121 55.2178 300.807 54.7499 298.918C52.2848 288.95 44.4576 281.122 34.4892 278.657C32.5877 278.191 31.2943 276.437 31.2864 274.483C31.2864 274.473 31.2783 274.465 31.2684 274.465ZM271.015 454.076C267.164 449.632 261.91 446.429 255.954 445.134C253.903 444.684 252.391 442.956 252.391 440.851V392.538C252.391 390.451 253.903 388.706 255.954 388.256C261.91 386.96 267.146 383.758 270.997 379.313C272.328 377.784 274.487 377.262 276.305 378.18L331.707 405.872C333.47 406.753 334.46 408.715 334.01 410.64C333.56 412.583 333.326 414.617 333.326 416.686C333.326 418.755 333.56 420.788 334.01 422.732C334.442 424.657 333.47 426.618 331.707 427.5L276.305 455.192C274.487 456.11 272.328 455.588 270.997 454.058L271.015 454.076Z" fill="white"/>
</g>
<defs>
<clipPath id="clip0_284_501">
<rect width="500" height="500" fill="white"/>
</clipPath>
</defs>
</svg>
