<svg width="71" height="65" viewBox="0 0 71 65" fill="none" xmlns="http://www.w3.org/2000/svg">
<g clip-path="url(#clip0_54_2)">
<path d="M43.6658 27.4851C43.6658 35.6411 37.054 42.2528 28.8981 42.2528C20.7421 42.2528 14.1304 35.6411 14.1304 27.4851C14.1304 19.3291 20.7421 12.7174 28.8981 12.7174C37.054 12.7174 43.6658 19.3291 43.6658 27.4851Z" fill="#FFC72A"/>
<path d="M50.8695 31.087C50.8695 41.2322 43.129 49.4565 33.5805 49.4565C24.0321 49.4565 16.2915 41.2322 16.2915 31.087C16.2915 20.9417 24.0321 12.7174 33.5805 12.7174C43.129 12.7174 50.8695 20.9417 50.8695 31.087Z" fill="#FFC72A"/>
<path fill-rule="evenodd" clip-rule="evenodd" d="M34.0815 45.3762C40.7758 45.3762 46.7266 39.5154 46.7266 31.6193C46.7266 23.7233 40.7758 17.8623 34.0815 17.8623C27.3872 17.8623 21.4364 23.7233 21.4364 31.6193C21.4364 39.5154 27.3872 45.3762 34.0815 45.3762ZM34.0815 50.5211C43.9067 50.5211 51.8715 42.0585 51.8715 31.6193C51.8715 21.18 43.9067 12.7174 34.0815 12.7174C24.2564 12.7174 16.2915 21.18 16.2915 31.6193C16.2915 42.0585 24.2564 50.5211 34.0815 50.5211Z" fill="#121213"/>
<g opacity="0.9">
<path d="M50.8694 3.53261C50.8694 5.48361 49.2878 7.06522 47.3368 7.06522C45.3858 7.06522 43.8042 5.48361 43.8042 3.53261C43.8042 1.5816 45.3858 0 47.3368 0C49.2878 0 50.8694 1.5816 50.8694 3.53261Z" fill="#FFC72A"/>
</g>
<g opacity="0.9">
<path d="M20.4892 6.35874C20.4892 9.09015 18.275 11.3043 15.5436 11.3043C12.8121 11.3043 10.5979 9.09015 10.5979 6.35874C10.5979 3.62733 12.8121 1.41309 15.5436 1.41309C18.275 1.41309 20.4892 3.62733 20.4892 6.35874Z" fill="#FFC72A"/>
</g>
<g opacity="0.9">
<path d="M70.6524 24.0217C70.6524 28.314 67.1728 31.7935 62.8806 31.7935C58.5884 31.7935 55.1089 28.314 55.1089 24.0217C55.1089 19.7295 58.5884 16.25 62.8806 16.25C67.1728 16.25 70.6524 19.7295 70.6524 24.0217Z" fill="#FFC72A"/>
</g>
<g opacity="0.9">
<path d="M61.4672 55.8152C61.4672 60.8878 57.3551 65 52.2824 65C47.2098 65 43.0977 60.8878 43.0977 55.8152C43.0977 50.7426 47.2098 46.6304 52.2824 46.6304C57.3551 46.6304 61.4672 50.7426 61.4672 55.8152Z" fill="#FFC72A"/>
</g>
<g opacity="0.9">
<path d="M14.1304 44.5109C14.1304 48.4129 10.9672 51.5761 7.06522 51.5761C3.16321 51.5761 0 48.4129 0 44.5109C0 40.6089 3.16321 37.4456 7.06522 37.4456C10.9672 37.4456 14.1304 40.6089 14.1304 44.5109Z" fill="#FFC72A"/>
</g>
</g>
<defs>
<clipPath id="clip0_54_2">
<rect width="71" height="65" fill="white"/>
</clipPath>
</defs>
</svg>
