<svg width="51" height="55" viewBox="0 0 51 55" fill="none" xmlns="http://www.w3.org/2000/svg">
<circle cx="16.8824" cy="22.8824" r="16.8824" fill="#00C5FB"/>
<path d="M39.5 27C39.5 37.3622 31.6297 45.5 22.2353 45.5C12.8409 45.5 4.97058 37.3622 4.97058 27C4.97058 16.6378 12.8409 8.5 22.2353 8.5C31.6297 8.5 39.5 16.6378 39.5 27Z" fill="#00C5FB" stroke="#121213" stroke-width="5"/>
<circle cx="33.2549" cy="38.2549" r="11.2549" fill="#FFC72A"/>
<path d="M47.5 41C47.5 47.4962 42.5794 52.5 36.8236 52.5C31.0677 52.5 26.1471 47.4962 26.1471 41C26.1471 34.5038 31.0677 29.5 36.8236 29.5C42.5794 29.5 47.5 34.5038 47.5 41Z" fill="#FFC72A" stroke="#121213" stroke-width="5"/>
<circle cx="34.2549" cy="11.2549" r="11.2549" fill="#EB1177"/>
<path d="M48.5 14C48.5 20.4962 43.5794 25.5 37.8236 25.5C32.0677 25.5 27.1471 20.4962 27.1471 14C27.1471 7.50378 32.0677 2.5 37.8236 2.5C43.5794 2.5 48.5 7.50378 48.5 14Z" fill="#EB1177" stroke="#121213" stroke-width="5"/>
</svg>
