<svg width="500" height="500" viewBox="0 0 500 500" fill="none" xmlns="http://www.w3.org/2000/svg">
<g clip-path="url(#clip0_284_504)">
<path d="M491.511 39.5028C480.222 28.2415 461.946 28.2415 450.657 39.5028C440.791 49.3455 439.562 64.5298 446.935 75.7035C447.953 77.2447 447.708 79.2938 446.409 80.5899L301.868 224.78C300.463 226.181 298.058 225.183 298.058 223.204L298.058 214.499L292.633 214.499L292.633 237.81L316.001 237.81L316.001 232.398L307.293 232.398C305.309 232.398 304.308 229.999 305.713 228.598L450.236 84.4253C451.552 83.1293 453.607 82.8841 455.152 83.8999C466.37 91.3257 481.626 90.0998 491.511 80.2396C502.782 68.9958 502.782 50.7466 491.511 39.5028Z" fill="black"/>
<path d="M351.262 33.2685C336.515 27.1737 319.626 34.1617 313.517 48.8556C308.179 61.7107 312.867 76.212 323.963 83.7253C325.49 84.7586 326.052 86.7377 325.349 88.454L279.212 199.648C278.457 201.487 275.841 201.487 275.086 199.648L271.75 191.61L266.747 193.676L275.7 215.218L297.277 206.303L295.205 201.312L287.165 204.64C285.321 205.393 283.478 203.571 284.25 201.732L330.388 90.5557C331.09 88.8568 332.899 87.841 334.724 88.1913C347.927 90.7658 361.568 83.8129 366.923 70.9228C373.032 56.2289 366.027 39.3632 351.298 33.2685" fill="black"/>
<path d="M249.996 31.0612C265.955 31.0612 278.876 43.9688 278.876 59.8712C278.876 73.7771 268.992 85.3886 255.842 88.0857C254.034 88.4535 252.753 90.0823 252.753 91.9212L252.753 187.651C252.753 189.63 255.158 190.628 256.562 189.227L262.725 183.08L266.569 186.898L250.049 203.378L233.528 186.898L237.356 183.08L243.518 189.227C244.922 190.628 247.328 189.63 247.328 187.651L247.328 91.9387C247.328 90.0998 246.046 88.471 244.22 88.1032C231.035 85.4412 221.099 73.8121 221.099 59.8712C221.099 43.9513 234.038 31.0612 249.979 31.0612" fill="black"/>
<path d="M8.48124 39.5027C19.7524 28.2414 38.046 28.2414 49.3346 39.5027C59.2013 49.3454 60.4302 64.5298 53.0566 75.7035C52.0383 77.2447 52.2841 79.2938 53.5833 80.5898L198.124 224.78C199.529 226.181 201.934 225.183 201.934 223.204L201.934 214.499L207.359 214.499L207.359 237.81L183.991 237.81L183.991 232.398L192.699 232.398C194.683 232.398 195.684 229.999 194.279 228.598L49.756 84.4253C48.4393 83.1293 46.3852 82.8841 44.8402 83.8999C33.6218 91.3257 18.3654 90.0997 8.48123 80.2395C-2.80744 68.9782 -2.80744 50.7465 8.48124 39.4852" fill="black"/>
<path d="M148.742 33.2685C163.472 27.1737 180.379 34.1617 186.488 48.8556C191.825 61.7107 187.138 76.212 176.025 83.7253C174.497 84.7586 173.935 86.7377 174.638 88.454L220.776 199.648C221.53 201.487 224.146 201.487 224.901 199.648L228.237 191.61L233.258 193.676L224.304 215.218L202.71 206.303L204.782 201.312L212.822 204.64C214.666 205.393 216.509 203.571 215.737 201.732L169.599 90.5557C168.897 88.8568 167.088 87.841 165.263 88.1913C152.06 90.7658 138.419 83.8129 133.064 70.9228C126.955 56.2289 133.96 39.3632 148.689 33.2685" fill="black"/>
<path d="M57.5143 440.255C57.5143 456.088 44.6455 468.943 28.7571 468.943C12.8687 468.943 1.89882e-06 456.105 2.59164e-06 440.255C3.28446e-06 424.406 12.8687 411.568 28.7571 411.568C44.6455 411.568 57.5143 424.406 57.5143 440.255Z" fill="black"/>
<path d="M189.835 440.255C189.835 456.088 176.966 468.943 161.078 468.943C145.189 468.943 132.32 456.105 132.32 440.255C132.32 424.406 145.189 411.568 161.078 411.568C176.966 411.568 189.835 424.406 189.835 440.255Z" fill="black"/>
<path d="M278.754 440.255C278.754 456.088 265.885 468.943 249.996 468.943C234.108 468.943 221.239 456.105 221.239 440.255C221.239 424.406 234.108 411.568 249.996 411.568C265.885 411.568 278.754 424.406 278.754 440.255Z" fill="black"/>
<path d="M367.658 440.255C367.658 456.088 354.789 468.943 338.901 468.943C323.012 468.943 310.144 456.105 310.144 440.255C310.144 424.405 323.012 411.568 338.901 411.568C354.789 411.568 367.658 424.405 367.658 440.255Z" fill="black"/>
<path d="M500 440.256C500 456.088 487.131 468.943 471.243 468.943C455.354 468.943 442.486 456.106 442.486 440.256C442.486 424.406 455.354 411.569 471.243 411.569C487.131 411.569 500 424.406 500 440.256Z" fill="black"/>
<path d="M426.403 388.749L426.403 397.436C426.403 399.415 423.997 400.413 422.593 399.012L281.546 258.307C279.281 256.048 278.07 252.983 278.07 249.778L278.07 249.725C278.07 233.893 265.201 221.038 249.312 221.038C233.424 221.038 220.555 233.875 220.555 249.725L220.555 249.778C220.555 252.965 219.344 256.048 217.097 258.307L76.0496 399.012C74.6451 400.413 72.2399 399.415 72.2399 397.435L72.2399 388.749L66.815 388.749L66.815 412.059L90.1824 412.059L90.1824 406.648L81.457 406.648C79.4731 406.648 78.4724 404.248 79.8769 402.847L218.642 264.419C220.503 262.563 223.628 262.896 225.05 265.12C225.05 265.137 225.067 265.155 225.085 265.19C225.805 266.328 225.945 267.747 225.418 268.99L178.087 382.969C177.332 384.808 174.716 384.808 173.961 382.969L170.625 374.948L165.604 377.015L174.54 398.556L196.135 389.624L194.063 384.633L186.005 387.961C184.161 388.714 182.318 386.892 183.09 385.053L227.666 277.695C228.947 274.63 232.599 273.351 235.513 274.945C237.638 276.101 239.92 276.994 242.325 277.589C244.818 278.202 246.574 280.427 246.574 283.001L246.574 378.03C246.574 380.009 244.168 381.008 242.764 379.607L236.602 373.459L232.757 377.277L249.277 393.758L265.798 377.277L261.971 373.459L255.808 379.607C254.404 381.008 251.999 380.009 251.999 378.03L251.999 283.001C251.999 280.444 253.754 278.22 256.247 277.589C258.652 276.994 260.935 276.101 263.059 274.945C265.973 273.351 269.643 274.63 270.907 277.695L315.482 385.053C316.237 386.892 314.411 388.731 312.568 387.961L304.509 384.633L302.438 389.624L324.032 398.556L332.968 377.015L327.947 374.948L324.611 382.969C323.856 384.808 321.24 384.808 320.486 382.969L273.171 268.99C272.645 267.747 272.785 266.328 273.505 265.19C273.505 265.172 273.523 265.155 273.54 265.12C274.962 262.896 278.07 262.563 279.948 264.419L418.713 402.847C420.117 404.248 419.117 406.648 417.133 406.648L408.407 406.648L408.407 412.059L431.775 412.059L431.775 388.749L426.35 388.749L426.403 388.749Z" fill="black"/>
</g>
<defs>
<clipPath id="clip0_284_504">
<rect width="500" height="500" fill="white"/>
</clipPath>
</defs>
</svg>
