<?xml version="1.0" encoding="UTF-8"?>
<svg version="1.1" viewBox="0 0 48 52" xmlns="http://www.w3.org/2000/svg" xmlnsCc="http://creativecommons.org/ns#" xmlnsDc="http://purl.org/dc/elements/1.1/" xmlnsRdf="http://www.w3.org/1999/02/22-rdf-syntax-ns#">
<metadata>
<rdfRDF>
<ccWork rdfAbout="">
<dcFormat>image/svg+xml</dcFormat>
<dcType rdfResource="http://purl.org/dc/dcmitype/StillImage"/>
<dcTitle/>
</ccWork>
</rdfRDF>
</metadata>
<g transform="translate(-140.07 -390.76)">
<g transform="translate(66.429 3.9286)">
<path d="m97.643 438.83h-8v-2-2h-2-2v-2-2h-2-2v-2-2h-2-2v-2-2h-2-2v-10-10h2 2v-2-2h2 2v-2-2h2 2v-2-2h2 2v-2-2h8 8v2 2h2 2v2 2h2 2v2 2h2 2v2 2h2 2v10 10h-2-2v2 2h-2-2v2 2h-2-2v2 2h-2-2v2 2h-8z" fill="#fefe3b"/>
<path d="m97.643 438.83h-8v-2-2h-2-2v-2-2h-2-2v-2-2h-2-2v-2-2h-2-2v-10-10h2 2v-2-2h2 2v-2-2h2 2v-2-2h2 2v-2-2h8 8v2 2h2 2v2 2h2 2v2 2h2 2v2 2h2 2v10 10h-2-2v2 2h-2-2v2 2h-2-2v2 2h-2-2v2 2h-8zm-6-20h2v-6-6h4 4v-2-2h-4-4v2 2h-2-2v6 6h2z" fill="#e9e91d"/>
<path d="m97.643 438.83h-8v-2-2h-2-2v-2-2h-2-2v-2-2h-2-2v-2-2h-2-2v-10-10h2 2v-2-2h2 2v-2-2h2 2v-2-2h2 2v-2-2h8 8v2 2h2 2v2 2h2 2v2 2h2 2v2 2h2 2v10 10h-2-2v2 2h-2-2v2 2h-2-2v2 2h-2-2v2 2h-8zm-18-16h2v-8-8h2 2v-2-2h2 2v-2-2h2 2v-2-2h6 6v-2-2h-8-8v2 2h-2-2v2 2h-2-2v2 2h-2-2v10 10h2zm12-4h2v-2-2h2 2v-2-2h2 2v-4-4h-4-4v2 2h-2-2v6 6h2z" fill="#cbcb00"/>
<path d="m97.643 438.83h-8v-2-2h-2-2v-2-2h-2-2v-2-2h-2-2v-2-2h-2-2v-10-10h2 2v-2-2h2 2v-2-2h2 2v-2-2h2 2v-2-2h8 8v2 2h2 2v2 2h2 2v2 2h2 2v2 2h2 2v10 10h-2-2v2 2h-2-2v2 2h-2-2v2 2h-2-2v2 2h-8zm-8-12h8v-2-2h-2-2v-4-4h2 2v-2-2h2 2v-2-2h2 2v6 6h2 2v-12-12h-2-2v-2-2h-8-8v2 2h-2-2v2 2h-2-2v2 2h-2-2v10 10h2 2v2 2h8z" fill="#adad00"/>
<path d="m97.643 438.83h-8v-2-2h-2-2v-2-2h-2-2v-2-2h-2-2v-2-2h-2-2v-10-10h2 2v-2-2h2 2v-2-2h2 2v-2-2h2 2v-2-2h8 8v2 2h2 2v2 2h2 2v2 2h2 2v2 2h2 2v10 10h-2-2v2 2h-2-2v2 2h-2-2v2 2h-2-2v2 2h-8zm-2-8h10v-2-2h2 2v-2-2h2 2v-12-12h-2-2v-2-2h-2-2v-2-2h-8-8v2 2h-2-2v2 2h-2-2v2 2h-2-2v10 10h2 2v2 2h2 2v2 2h10zm2-8h-4v-2-2h4 4v-6-6h2 2v6 6h-2-2v2 2h-4z" fill="#8f8f00"/>
<path d="m97.643 438.83h-8v-2-2h-2-2v-2-2h-2-2v-2-2h-2-2v-2-2h-2-2v-10-10h2 2v-2-2h2 2v-2-2h2 2v-2-2h2 2v-2-2h8 8v2 2h2 2v2 2h2 2v2 2h2 2v2 2h2 2v10 10h-2-2v2 2h-2-2v2 2h-2-2v2 2h-2-2v2 2h-8zm-2-8h10v-2-2h2 2v-2-2h2 2v-12-12h-2-2v-2-2h-2-2v-2-2h-8-8v2 2h-2-2v2 2h-2-2v2 2h-2-2v10 10h2 2v2 2h2 2v2 2h10z" fill="#717100"/>
<path d="m97.643 438.83h-8v-2-2h-2-2v-2-2h-2-2v-2-2h-2-2v-2-2h-2-2v-10-10h2 2v-2-2h2 2v-2-2h2 2v-2-2h2 2v-2-2h8 8v2 2h2 2v2 2h2 2v2 2h2 2v2 2h2 2v10 10h-2-2v2 2h-2-2v2 2h-2-2v2 2h-2-2v2 2h-8zm0-4h8v-2-2h2 2v-2-2h2 2v-2-2h2 2v-10-10h-2-2v-2-2h-2-2v-2-2h-2-2v-2-2h-8-8v2 2h-2-2v2 2h-2-2v2 2h-2-2v10 10h2 2v2 2h2 2v2 2h2 2v2 2h8z"/>
</g>
</g>
</svg>