<svg width="600" height="310" viewBox="0 0 600 310" fill="none" xmlns="http://www.w3.org/2000/svg">
<g clip-path="url(#clip0_284_528)">
<path d="M414.833 100.188H344.944V268.635H414.833V100.188Z" fill="#F6F6F6"/>
<path d="M166.347 58.0791H234.736V125.878C234.736 134.838 240.106 140.518 248.766 140.518C257.426 140.518 262.806 134.848 262.806 125.878V100.198H331.194V170.387H231.746C223.086 170.387 217.106 176.067 217.106 184.117C217.106 192.167 223.086 197.857 231.746 197.857H331.194V268.636H262.806V242.346C262.806 233.396 257.436 227.716 248.766 227.716C240.096 227.716 234.736 233.386 234.736 242.346V268.636H166.347V58.0791Z" fill="#F6F6F6"/>
<path d="M0 254.446H93.1784C101.838 254.446 107.818 248.776 107.818 240.706C107.818 232.636 101.838 226.676 93.1784 226.676L0 226.066V100.188H152.607V156.337H59.439C50.7792 156.337 44.7993 162.007 44.7993 170.077C44.7993 178.147 50.7792 184.107 59.439 184.107H152.607V310.735H0V254.446Z" fill="#F6F6F6"/>
<path d="M510.401 211.286C525.631 211.286 537.281 199.637 537.281 184.407C537.281 169.177 525.631 157.527 510.401 157.527C495.172 157.527 483.522 169.177 483.522 184.407C483.522 199.637 495.172 211.286 510.401 211.286ZM513.391 100.188C564.761 100.188 600 134.528 600 184.407C600 234.286 564.761 268.625 513.391 268.625H495.762V310.735H428.563V100.188H513.381H513.391Z" fill="#F6F6F6"/>
<path d="M465.212 43.4993C465.212 67.5289 445.743 86.9985 421.713 86.9985C397.683 86.9985 378.214 67.5289 378.214 43.4993C378.214 19.4697 397.693 0 421.713 0C445.733 0 465.212 19.4697 465.212 43.4993Z" fill="#FFC900"/>
</g>
<defs>
<clipPath id="clip0_284_528">
<rect width="600" height="310" fill="white"/>
</clipPath>
</defs>
</svg>
