<?xml version="1.0" encoding="UTF-8"?>
<svg version="1.0" viewBox="0 0 32 32" xmlns="http://www.w3.org/2000/svg" xmlnsCc="http://creativecommons.org/ns#" xmlnsDc="http://purl.org/dc/elements/1.1/" xmlnsRdf="http://www.w3.org/1999/02/22-rdf-syntax-ns#">
<path d="m12.345 6.2426v2.4677h-5.4068v2.3845h-1.7797v7.3275h21.684v-7.3275h-1.8475v-2.3845h-5.339v-2.4677h-7.3107zm-1.7797 7.4107h3.5593v2.3845h-3.5593v-2.3845zm7.3107 0h3.5593v2.3845h-3.5593v-2.3845zm-7.3164 4.6515v2.5927h-1.8418v2.3845h-3.5593v2.4753h3.6215v-2.392h3.5593v-2.4677h1.8475v-2.5927h-3.6271zm3.6271 2.5927v2.4677h3.6215v-2.4677h-3.6215zm3.6215 0h1.7853v2.3845h3.6215v-2.4677h-1.7797v-2.5095h-3.6271v2.5927zm5.4068 2.3845v2.4753h3.6271v-2.4753h-3.6271z" fill="#204a87"/>
<metadata>
</metadata>
</svg>